<svg width="28" height="27" viewBox="0 0 28 27" fill="none" xmlns="http://www.w3.org/2000/svg">
<path d="M24.3125 0.625H3.6875C2.10547 0.625 0.875 1.91406 0.875 3.4375V24.0625C0.875 25.6445 2.10547 26.875 3.6875 26.875H24.3125C25.8359 26.875 27.125 25.6445 27.125 24.0625V3.4375C27.125 1.91406 25.8359 0.625 24.3125 0.625ZM22.4375 15.3906C22.4375 15.8008 22.0859 16.0938 21.7344 16.0938H16.3438V21.4844C16.3438 21.8945 15.9922 22.1875 15.6406 22.1875H12.3594C11.9492 22.1875 11.6562 21.8945 11.6562 21.4844V16.0938H6.26562C5.85547 16.0938 5.5625 15.8008 5.5625 15.3906V12.1094C5.5625 11.7578 5.85547 11.4062 6.26562 11.4062H11.6562V6.01562C11.6562 5.66406 11.9492 5.3125 12.3594 5.3125H15.6406C15.9922 5.3125 16.3438 5.66406 16.3438 6.01562V11.4062H21.7344C22.0859 11.4062 22.4375 11.7578 22.4375 12.1094V15.3906Z" fill="#70716F"/>
</svg>
