<svg width="90" height="70" viewBox="0 0 90 70" fill="none" xmlns="http://www.w3.org/2000/svg">
<path d="M75 60H67.5V61.5625C67.5 62.1875 67.0312 62.5 66.5625 62.5H8.4375C7.8125 62.5 7.5 62.1875 7.5 61.5625V23.4375C7.5 22.9688 7.8125 22.5 8.4375 22.5H10V15H7.5C3.28125 15 0 18.4375 0 22.5V62.5C0 66.7188 3.28125 70 7.5 70H67.5C71.5625 70 75 66.7188 75 62.5V60ZM81.5625 7.5C82.0312 7.5 82.5 7.96875 82.5 8.4375V46.5625C82.5 47.1875 82.0312 47.5 81.5625 47.5H23.4375C22.8125 47.5 22.5 47.1875 22.5 46.5625V8.4375C22.5 7.96875 22.8125 7.5 23.4375 7.5H81.5625ZM82.5 0H22.5C18.2812 0 15 3.4375 15 7.5V47.5C15 51.7188 18.2812 55 22.5 55H82.5C86.5625 55 90 51.7188 90 47.5V7.5C90 3.4375 86.5625 0 82.5 0ZM41.25 17.5C41.25 14.0625 38.4375 11.25 35 11.25C31.4062 11.25 28.75 14.0625 28.75 17.5C28.75 21.0938 31.4062 23.75 35 23.75C38.4375 23.75 41.25 21.0938 41.25 17.5ZM30 32.5V40H75V27.5L63.75 16.4062C62.9688 15.625 61.875 15.625 61.0938 16.4062L45 32.5L38.75 26.4062C37.9688 25.625 36.875 25.625 36.0938 26.4062L30 32.5Z" fill="#70716F"/>
</svg>