<svg width="68" height="52" viewBox="0 0 68 52" fill="none" xmlns="http://www.w3.org/2000/svg">
<path d="M1.99659 50.311C1.29336 49.8823 0.53248 49.0484 0.305742 48.458C-1.22866 44.4624 3.33716 40.9071 6.77425 43.4211C7.42149 43.8945 7.46057 44.0776 7.02608 44.6011C6.64738 45.0574 6.32349 45.12 5.79761 44.8385C4.82096 44.3159 3.33429 44.3582 2.76765 44.9248C2.09939 45.5931 2.18835 47.8036 2.91266 48.5279C3.6335 49.2487 5.07596 49.3318 5.71831 48.6894C6.06064 48.3471 6.31633 48.3587 6.77245 48.7372C7.63919 49.4566 7.52421 49.8248 6.22274 50.4978C4.67791 51.2967 3.53004 51.246 1.99659 50.311ZM10.6495 50.7308C8.05455 49.6195 7.35738 46.1427 9.29471 43.9745C10.3027 42.8464 10.6663 42.6994 12.4501 42.6994C14.2339 42.6994 14.5976 42.8464 15.6055 43.9745C17.9487 46.597 16.4856 50.5502 13.0357 50.9176C12.1768 51.0091 11.103 50.925 10.6495 50.7308ZM14.39 47.8725C14.9268 46.9084 14.9268 46.6893 14.39 45.7252C13.5775 44.266 11.6154 44.0391 10.7307 45.3021C10.388 45.7914 10.1076 46.465 10.1076 46.7989C10.1076 47.1328 10.388 47.8063 10.7307 48.2956C11.6154 49.5586 13.5775 49.3318 14.39 47.8725ZM19.6418 50.3574C17.0023 48.7478 16.9166 45.0962 19.4777 43.3622C21.9476 41.6899 25.3154 42.8053 26.1437 45.5698C27.2784 49.3572 23.0761 52.4516 19.6418 50.3574ZM23.4488 48.4952C24.8905 47.1905 23.8981 44.4563 21.9828 44.4563C20.7709 44.4563 19.8681 45.4563 19.8681 46.7989C19.8681 48.8785 21.9404 49.8603 23.4488 48.4952ZM27.6766 46.7989V42.5042H28.6526C29.5548 42.5042 29.6205 42.6446 29.6423 44.3587L29.6559 46.2132L31.2446 44.3587C32.4786 42.9182 33.246 43.0075 33.9944 42.5042H35.1554L33.7585 44.1362C32.9902 45.0338 32.3616 45.9088 32.3616 46.0807C32.3616 46.2526 32.9765 47.3545 33.7281 48.5294C34.4797 49.7043 35.0946 50.7618 35.0946 50.8795C35.0946 50.9972 34.5818 51.0935 33.9552 51.0935C33.0553 51.0935 32.6306 50.7857 31.9352 49.6294C31.451 48.8242 31.0017 48.0964 30.9368 48.0121C30.5913 47.5633 29.6287 49.0041 29.6287 49.97C29.6287 50.9081 29.289 51.6026 28.6526 51.0935H27.6766V46.7989ZM38.2179 47.7996V44.5058L36.9491 44.3835C35.9766 44.2897 35.6511 44.0559 35.5554 43.3827C35.4339 42.5271 35.5228 42.5042 38.9716 42.5042C42.4884 42.5042 42.5126 42.5109 42.5126 43.4803C42.5126 44.3045 42.3304 44.4563 41.3413 44.4563H40.1701V47.7749C40.1701 51.0544 40.1586 51.0935 39.194 51.0935C38.23 51.0935 38.2179 51.0528 38.2179 47.7996ZM43.6839 46.7989V42.5042H44.6599C45.5564 42.5042 45.636 42.6474 45.636 44.2611V46.018H47.3929H49.1498V44.2611C49.1498 42.6474 49.4257 43.0643 50.1258 42.5042H51.1019V46.7989C51.1019 51.0926 51.1017 51.0935 50.1483 51.0935C49.3055 51.0935 49.1807 50.9006 49.0746 49.4342C48.9551 47.783 48.7502 48.4448 47.2953 47.6549L45.636 47.5348V49.3141C45.636 50.9518 45.3614 51.6547 44.6599 51.0935H43.6839V46.7989ZM52.6407 49.239C55.2842 42.6731 55.2661 42.7049 56.4317 42.5862C57.6163 42.4656 57.3838 42.0303 60.7973 50.7606C60.8689 50.9437 60.4063 51.0935 59.7692 51.0935C58.9393 51.0935 58.5531 50.8721 58.4068 50.3126C58.2392 49.6719 57.8742 49.5318 56.3726 49.5318C54.8709 49.5318 54.5059 49.6719 54.3384 50.3126C54.194 50.8646 53.6636 51.5463 53.0141 51.0935H51.8941L52.6407 49.239ZM57.331 47.4821C57.3213 47.2137 57.0896 46.4691 56.816 45.8274L56.3186 44.6608L55.8575 45.9833C55.2202 47.8115 55.2613 47.9701 56.3726 47.9701C56.9094 47.9701 57.3407 47.7505 57.331 47.4821ZM63.5954 47.7749V44.4563H62.4241C61.435 44.4563 61.2528 44.3045 61.2528 43.4803C61.2528 42.5157 61.2919 42.5042 64.5714 42.5042C67.851 42.5042 67.89 42.5157 67.89 43.4803C67.89 44.3045 67.5417 45.005 66.7187 44.4563H65.5475V47.7749C65.5475 51.0544 65.536 51.0935 64.5714 51.0935C63.6068 51.0935 63.5954 51.0544 63.5954 47.7749ZM14.4022 36.5448C13.8654 36.3024 13.3611 36.0588 13.2815 36.0036C13.0981 35.8762 12.5398 32.9351 12.047 29.5002C11.5697 26.173 11.8362 24.9353 13.0303 24.9353C14.7037 24.9353 14.9092 24.1559 14.6088 18.9476C14.4559 16.2975 14.2081 13.9307 14.0581 13.688C13.7409 13.1746 5.63342 14.0161 5.05283 14.6226C4.85637 14.8279 5.1407 17.1776 5.72199 20.1526L6.73276 25.3257H8.16229C10.0489 25.3257 10.4221 26.1799 10.7551 31.2602C11.0477 35.7254 11.2587 35.6001 7.82548 33.0004C2.76714 29.17 -0.0791521 21.7258 1.08453 15.3699C3.34769 3.00892 16.7681 -3.62997 27.9935 2.05839C32.2867 4.2339 35.734 8.44561 37.2225 13.3339C37.9659 15.7751 38.2111 16.1664 39.061 16.2681C39.6004 16.3327 40.2421 16.144 40.4871 15.8488C40.8634 15.3954 41.3429 15.4168 43.577 15.9867C45.8371 16.5633 47.4539 16.6297 54.6983 16.4434C64.0925 16.2019 64.3762 16.2631 64.3762 18.5321C64.3762 20.8537 63.4215 21.1377 56.4848 20.8795C53.2021 20.7573 49.511 20.5497 48.2823 20.4182C46.542 20.232 45.4679 20.3724 43.4213 21.0534C41.5922 21.6621 40.7489 21.7915 40.6448 21.4794C40.5627 21.2328 39.916 21.031 39.2078 21.031C37.9996 21.031 37.8918 21.1441 37.4584 22.865C36.7331 25.7454 35.2141 28.6221 33.2859 30.7667C31.3819 32.8844 29.3229 34.5202 28.9858 34.183C28.7222 33.9195 29.4821 28.7866 30.1115 26.5795C30.4542 25.3774 30.8392 24.8423 31.4764 24.6824C31.9645 24.5598 32.8235 23.9134 33.3852 23.2459C34.3188 22.1363 34.3904 21.8081 34.2197 19.4214C33.8514 14.275 31.3659 12.4662 28.6375 15.3591C26.0264 18.1277 25.4507 22.0969 27.4339 23.6569C28.5543 24.5383 28.6453 26.0118 27.8383 30.2059C26.7941 35.632 26.7456 35.7188 24.3287 36.479C23.1541 36.8485 22.1211 37.0789 22.0334 36.9912C21.9456 36.9034 21.6641 35.2564 21.4079 33.3312C20.7614 28.4728 21.1586 24.4982 22.6654 20.7467C23.4291 18.8453 23.9547 16.7421 24.0733 15.1135L24.2625 12.5145L22.6587 11.5021C20.6061 10.2064 19.955 10.2288 17.9746 11.6634C16.5535 12.6928 16.3543 13.0238 16.3543 14.3552C16.3543 15.9916 17.589 20.3784 18.6728 22.5927C19.5037 24.2905 19.7547 31.6762 19.0902 34.8771L18.6415 37.0383L17.0099 37.0119C16.1125 36.9974 14.939 36.7871 14.4022 36.5447V36.5448ZM63.1317 18.5852C63.2871 17.7784 62.16 17.2347 61.5652 17.8296C60.9703 18.4244 61.514 19.5515 62.3208 19.3961C62.6948 19.3241 63.0597 18.9592 63.1317 18.5852ZM8.00196 21.3239C7.8622 20.1965 7.64393 18.5275 7.51691 17.6149C7.37814 16.6178 7.44132 15.9556 7.67523 15.9556C7.88933 15.9556 8.18021 17.1415 8.32163 18.5909C8.46304 20.0403 8.67316 21.7094 8.78855 22.2999C8.90394 22.8904 8.83134 23.3736 8.62721 23.3736C8.42308 23.3736 8.14172 22.4512 8.00196 21.3239ZM20.1609 23.1483C19.7476 22.7314 19.8068 15.0952 20.2286 14.4289C20.7875 13.5461 21.1537 17.7609 20.781 20.7865C20.601 22.2479 20.322 23.3107 20.1609 23.1483ZM9.94594 20.7382C9.80755 19.5035 9.59618 17.8345 9.47622 17.0292C9.35156 16.1925 9.42061 15.5651 9.63736 15.5651C9.84595 15.5651 10.1323 16.751 10.2737 18.2005C10.4152 19.6499 10.6253 21.319 10.7407 21.9095C10.8561 22.5 10.7811 22.9832 10.574 22.9832C10.367 22.9832 10.0843 21.9729 9.94594 20.7382ZM12.3427 22.7163C12.2407 22.541 12.0403 21.3434 11.8975 20.055C11.7546 18.7666 11.5431 17.2293 11.4273 16.6388C11.3115 16.0483 11.3835 15.5651 11.5872 15.5651C11.7909 15.5651 12.1632 17.1687 12.4145 19.1285C12.8355 22.4112 12.8132 23.5246 12.3427 22.7163ZM18.4971 19.3059C17.8588 16.2645 17.8432 12.7748 18.4652 12.1529C18.6028 12.0152 18.9621 12.1556 19.2636 12.465C19.7046 12.9174 19.7327 13.4473 19.4075 15.1747C19.1852 16.3557 19.0998 18.5079 19.2178 19.9574C19.3357 21.4068 19.3771 22.5927 19.3096 22.5927C19.2421 22.5927 18.8764 21.1137 18.4971 19.3059H18.4971ZM21.4634 18.4211C21.4449 16.6636 21.2503 14.7535 21.031 14.1766C20.7477 13.4314 20.7615 12.9718 21.0788 12.5895C22.7912 10.5262 23.301 15.6944 21.8537 20.4454C21.5681 21.383 21.4902 20.9791 21.4634 18.4211ZM17.1968 16.7364C17.1968 16.1996 17.2854 15.98 17.3937 16.2484C17.502 16.5168 17.502 16.956 17.3937 17.2244C17.2854 17.4928 17.1968 17.2732 17.1968 16.7364ZM23.4804 14.9795C23.4847 14.1206 23.5647 13.8152 23.658 14.3008C23.7514 14.7865 23.7479 15.4892 23.6502 15.8625C23.5524 16.2358 23.476 15.8384 23.4804 14.9795H23.4804ZM16.9792 14.1338C17.3386 12.6379 17.5256 12.4963 17.5256 13.7201C17.5256 14.2801 17.3429 14.8512 17.1195 14.9892C16.8532 15.1538 16.8049 14.8594 16.9792 14.1338ZM19.6959 11.8437C18.9804 11.3026 19.0104 11.2705 20.2317 11.2705C21.3374 11.2705 21.4548 11.3556 21.0394 11.8561C20.7721 12.1782 20.5309 12.4362 20.5036 12.4294C20.4762 12.4225 20.1127 12.159 19.6959 11.8437Z" fill="#70716F"/>
</svg>
